<!-- <svg xmlns="http://www.w3.org/2000/svg" fill="none" class="icon icon-cart-empty" viewBox="0 0 40 40"><path fill="currentColor" fill-rule="evenodd" d="M15.75 11.8h-3.16l-.77 11.6a5 5 0 0 0 4.99 5.34h7.38a5 5 0 0 0 4.99-5.33L28.4 11.8zm0 1h-2.22l-.71 10.67a4 4 0 0 0 3.99 4.27h7.38a4 4 0 0 0 4-4.27l-.72-10.67h-2.22v.63a4.75 4.75 0 1 1-9.5 0zm8.5 0h-7.5v.63a3.75 3.75 0 1 0 7.5 0z"/></svg> -->

<svg xmlns="http://www.w3.org/2000/svg" width="40" height="40" viewBox="0 0 40 40" fill="none">
<path fill-rule="evenodd" clip-rule="evenodd" d="M13.0107 14H29.0007L27.7284 21.1746C27.6437 21.6521 27.2287 22 26.7437 22H14.002C13.4891 22 13.0664 21.6139 13.0087 21.1166L13.002 20.9987L13.0107 14Z" stroke="#0F1C1F" stroke-width="1.5" stroke-linecap="round" stroke-linejoin="round"/>
<path d="M11 11H12.99L13 15" stroke="#0F1C1F" stroke-width="1.5" stroke-linecap="round" stroke-linejoin="round"/>
<path fill-rule="evenodd" clip-rule="evenodd" d="M22.5 27C22.5 25.8954 23.3954 25 24.4999 25C25.6045 25 26.4999 25.8954 26.4999 27C26.4999 28.1045 25.6045 29 24.4999 29C23.4293 29 22.5527 28.0575 22.5 27Z" stroke="#0F1C1F" stroke-width="1.5" stroke-linecap="round" stroke-linejoin="round"/>
<path fill-rule="evenodd" clip-rule="evenodd" d="M15.5 29C14.3954 29 13.5 28.1045 13.5 27C13.5 25.8954 14.3954 25 15.5 25C16.6045 25 17.4999 25.8954 17.4999 27C17.4999 28.1045 16.6045 29 15.5 29Z" stroke="#0F1C1F" stroke-width="1.5" stroke-linecap="round" stroke-linejoin="round"/>
<path d="M15.5 22V25" stroke="#0F1C1F" stroke-width="1.5" stroke-linecap="round" stroke-linejoin="round"/>
<path d="M22 27H18" stroke="#0F1C1F" stroke-width="1.5" stroke-linecap="round" stroke-linejoin="round"/>
</svg>