<svg class="icon icon-linkedin" xmlns="http://www.w3.org/2000/svg" width="22" height="22" viewBox="0 0 22 22" fill="none">
<g clip-path="url(#clip0_323_1811)">
<rect x="1.35742" y="1.35718" width="18.9993" height="18.9993" fill="#39474A"/>
<path d="M20.1106 0H1.60288C1.17777 0 0.770071 0.168874 0.469473 0.469473C0.168874 0.770071 0 1.17777 0 1.60288V20.1106C0 20.5357 0.168874 20.9434 0.469473 21.244C0.770071 21.5446 1.17777 21.7135 1.60288 21.7135H20.1106C20.5357 21.7135 20.9434 21.5446 21.244 21.244C21.5446 20.9434 21.7135 20.5357 21.7135 20.1106V1.60288C21.7135 1.17777 21.5446 0.770071 21.244 0.469473C20.9434 0.168874 20.5357 0 20.1106 0ZM6.47183 18.4972H3.20727V8.12748H6.47183V18.4972ZM4.83729 6.69047C4.46698 6.68839 4.10558 6.57665 3.79872 6.36937C3.49185 6.16209 3.25326 5.86855 3.11306 5.5258C2.97286 5.18306 2.93734 4.80646 3.01097 4.44354C3.0846 4.08062 3.26408 3.74764 3.52677 3.48663C3.78947 3.22562 4.12359 3.04827 4.48697 2.97698C4.85036 2.90568 5.22672 2.94362 5.56856 3.08602C5.91041 3.22842 6.20241 3.46888 6.40771 3.77707C6.61302 4.08527 6.72243 4.44737 6.72214 4.81768C6.72563 5.06561 6.67917 5.3117 6.58553 5.54129C6.4919 5.77088 6.35299 5.97926 6.1771 6.15403C6.00121 6.32879 5.79194 6.46636 5.56175 6.55852C5.33157 6.65068 5.08518 6.69556 4.83729 6.69047ZM18.5047 18.5062H15.2417V12.8411C15.2417 11.1704 14.5315 10.6547 13.6147 10.6547C12.6466 10.6547 11.6966 11.3845 11.6966 12.8833V18.5062H8.43208V8.13502H11.5715V9.57204H11.6137C11.9289 8.9342 13.0326 7.844 14.7169 7.844C16.5385 7.844 18.5062 8.92515 18.5062 12.0917L18.5047 18.5062Z" fill="#FAFBFB"/>
</g>
<defs>
<clipPath id="clip0_323_1811">
<rect width="21.7135" height="21.7135" fill="white"/>
</clipPath>
</defs>
</svg>