<!-- <svg class="icon icon-instagram" viewBox="0 0 20 20"><path fill="currentColor" fill-rule="evenodd" d="M13.23 3.492c-.84-.037-1.096-.046-3.23-.046-2.144 0-2.39.01-3.238.055-.776.027-1.195.164-1.487.273a2.4 2.4 0 0 0-.912.593 2.5 2.5 0 0 0-.602.922c-.11.282-.238.702-.274 1.486-.046.84-.046 1.095-.046 3.23s.01 2.39.046 3.229c.004.51.097 1.016.274 1.495.145.365.319.639.602.913.282.282.538.456.92.602.474.176.974.268 1.479.273.848.046 1.103.046 3.238.046s2.39-.01 3.23-.046c.784-.036 1.203-.164 1.486-.273.374-.146.648-.329.921-.602.283-.283.447-.548.602-.922.177-.476.27-.979.274-1.486.037-.84.046-1.095.046-3.23s-.01-2.39-.055-3.229c-.027-.784-.164-1.204-.274-1.495a2.4 2.4 0 0 0-.593-.913 2.6 2.6 0 0 0-.92-.602c-.284-.11-.703-.237-1.488-.273ZM6.697 2.05c.857-.036 1.131-.045 3.302-.045a63 63 0 0 1 3.302.045c.664.014 1.321.14 1.943.374a4 4 0 0 1 1.414.922c.41.397.728.88.93 1.414.23.622.354 1.279.365 1.942C18 7.56 18 7.824 18 10.005c0 2.17-.01 2.444-.046 3.292-.036.858-.173 1.442-.374 1.943-.2.53-.474.976-.92 1.423a3.9 3.9 0 0 1-1.415.922c-.51.191-1.095.337-1.943.374-.857.036-1.122.045-3.302.045-2.171 0-2.445-.009-3.302-.055-.849-.027-1.432-.164-1.943-.364a4.15 4.15 0 0 1-1.414-.922 4.1 4.1 0 0 1-.93-1.423c-.183-.51-.329-1.085-.365-1.943C2.009 12.45 2 12.167 2 10.004c0-2.161 0-2.435.055-3.302.027-.848.164-1.432.365-1.942a4.4 4.4 0 0 1 .92-1.414 4.2 4.2 0 0 1 1.415-.93c.51-.183 1.094-.33 1.943-.366Zm.427 4.806a4.105 4.105 0 1 1 5.805 5.805 4.105 4.105 0 0 1-5.805-5.805m1.882 5.371a2.668 2.668 0 1 0 2.042-4.93 2.668 2.668 0 0 0-2.042 4.93m5.922-5.942a.958.958 0 1 1-1.355-1.355.958.958 0 0 1 1.355 1.355" clip-rule="evenodd"/></svg> -->

<svg class="icon icon-instagram" xmlns="http://www.w3.org/2000/svg" width="23" height="22" viewBox="0 0 23 22" fill="none">
<g clip-path="url(#clip0_323_1810)">
<path d="M11.6107 2.21873C14.5114 2.21873 14.855 2.23146 15.9958 2.28235C17.056 2.329 17.6285 2.50712 18.0102 2.65555C18.5149 2.85063 18.8796 3.08812 19.257 3.46556C19.6387 3.84725 19.872 4.20773 20.067 4.7124C20.2155 5.09408 20.3936 5.67084 20.4402 6.72683C20.4911 7.87188 20.5039 8.21539 20.5039 11.1119C20.5039 14.0127 20.4911 14.3562 20.4402 15.4971C20.3936 16.5573 20.2155 17.1298 20.067 17.5115C19.872 18.0162 19.6345 18.3809 19.257 18.7583C18.8753 19.14 18.5149 19.3733 18.0102 19.5683C17.6285 19.7168 17.0518 19.8949 15.9958 19.9415C14.8507 19.9924 14.5072 20.0051 11.6107 20.0051C8.70987 20.0051 8.36635 19.9924 7.22555 19.9415C6.16532 19.8949 5.59279 19.7168 5.21111 19.5683C4.70644 19.3733 4.34172 19.1358 3.96428 18.7583C3.5826 18.3766 3.34935 18.0162 3.15427 17.5115C3.00583 17.1298 2.82772 16.553 2.78107 15.4971C2.73017 14.352 2.71745 14.0085 2.71745 11.1119C2.71745 8.21115 2.73017 7.86764 2.78107 6.72683C2.82772 5.6666 3.00583 5.09408 3.15427 4.7124C3.34935 4.20773 3.58684 3.84301 3.96428 3.46556C4.34596 3.08388 4.70644 2.85063 5.21111 2.65555C5.59279 2.50712 6.16956 2.329 7.22555 2.28235C8.36635 2.23146 8.70987 2.21873 11.6107 2.21873ZM11.6107 0.263672C8.66322 0.263672 8.29426 0.276395 7.13649 0.327286C5.98296 0.378177 5.18991 0.564777 4.50288 0.831955C3.78616 1.11186 3.17971 1.48082 2.5775 2.08727C1.97105 2.68948 1.60209 3.29593 1.32219 4.0084C1.05501 4.69967 0.868411 5.48848 0.81752 6.64201C0.766629 7.80402 0.753906 8.17298 0.753906 11.1204C0.753906 14.0679 0.766629 14.4368 0.81752 15.5946C0.868411 16.7481 1.05501 17.5412 1.32219 18.2282C1.60209 18.9449 1.97105 19.5514 2.5775 20.1536C3.17971 20.7558 3.78616 21.129 4.49864 21.4046C5.18991 21.6718 5.97872 21.8584 7.13225 21.9093C8.29002 21.9602 8.65898 21.9729 11.6064 21.9729C14.5539 21.9729 14.9228 21.9602 16.0806 21.9093C17.2341 21.8584 18.0272 21.6718 18.7142 21.4046C19.4267 21.129 20.0331 20.7558 20.6353 20.1536C21.2375 19.5514 21.6107 18.9449 21.8864 18.2324C22.1536 17.5412 22.3402 16.7524 22.3911 15.5988C22.442 14.4411 22.4547 14.0721 22.4547 11.1247C22.4547 8.17723 22.442 7.80827 22.3911 6.65049C22.3402 5.49696 22.1536 4.70391 21.8864 4.01688C21.6192 3.29593 21.2503 2.68948 20.6438 2.08727C20.0416 1.48506 19.4352 1.11186 18.7227 0.836196C18.0314 0.569018 17.2426 0.382418 16.0891 0.331527C14.9271 0.276395 14.5581 0.263672 11.6107 0.263672Z" fill="#FAFBFB"/>
<path d="M11.611 5.5437C8.53208 5.5437 6.03418 8.0416 6.03418 11.1205C6.03418 14.1994 8.53208 16.6973 11.611 16.6973C14.6899 16.6973 17.1878 14.1994 17.1878 11.1205C17.1878 8.0416 14.6899 5.5437 11.611 5.5437ZM11.611 14.738C9.61351 14.738 7.99348 13.118 7.99348 11.1205C7.99348 9.12304 9.61351 7.50301 11.611 7.50301C13.6085 7.50301 15.2285 9.12304 15.2285 11.1205C15.2285 13.118 13.6085 14.738 11.611 14.738Z" fill="#FAFBFB"/>
<path d="M18.7104 5.3232C18.7104 6.04416 18.1251 6.62517 17.4084 6.62517C16.6875 6.62517 16.1064 6.03992 16.1064 5.3232C16.1064 4.60225 16.6917 4.02124 17.4084 4.02124C18.1251 4.02124 18.7104 4.60649 18.7104 5.3232Z" fill="#FAFBFB"/>
</g>
<defs>
<clipPath id="clip0_323_1810">
<rect width="21.7135" height="21.7135" fill="white" transform="translate(0.753906 0.263672)"/>
</clipPath>
</defs>
</svg>