<!-- <svg xmlns="http://www.w3.org/2000/svg" fill="none" class="icon icon-account" viewBox="0 0 18 19"><path fill="currentColor" fill-rule="evenodd" d="M6 4.5a3 3 0 1 1 6 0 3 3 0 0 1-6 0m3-4a4 4 0 1 0 0 8 4 4 0 0 0 0-8m5.58 12.15c1.12.82 1.83 2.24 1.91 4.85H1.51c.08-2.6.79-4.03 1.9-4.85C4.66 11.75 6.5 11.5 9 11.5s4.35.26 5.58 1.15M9 10.5c-2.5 0-4.65.24-6.17 1.35C1.27 12.98.5 14.93.5 18v.5h17V18c0-3.07-.77-5.02-2.33-6.15-1.52-1.1-3.67-1.35-6.17-1.35" clip-rule="evenodd"/></svg> -->

<svg xmlns="http://www.w3.org/2000/svg" class="icon icon-account" width="21" height="21" viewBox="0 0 21 21" fill="none">
<path fill-rule="evenodd" clip-rule="evenodd" d="M10.6182 11.4921C7.85674 11.4921 5.61816 9.25349 5.61816 6.49207C5.61816 3.73064 7.85674 1.49207 10.6182 1.49207C13.3796 1.49207 15.6182 3.73064 15.6182 6.49207C15.6182 9.25349 13.3796 11.4921 10.6182 11.4921Z" stroke="#0F1C1F" stroke-width="1.5" stroke-linecap="round" stroke-linejoin="round"/>
<path fill-rule="evenodd" clip-rule="evenodd" d="M10.6182 14.4921C15.761 14.4921 18.761 16.1587 19.6182 19.4921H1.61816C2.47531 16.1587 5.47531 14.4921 10.6182 14.4921Z" stroke="#0F1C1F" stroke-width="1.5" stroke-linecap="round" stroke-linejoin="round"/>
</svg>