<!-- <svg class="icon icon-facebook" viewBox="0 0 20 20"><path fill="currentColor" d="M18 10.049C18 5.603 14.419 2 10 2s-8 3.603-8 8.049C2 14.067 4.925 17.396 8.75 18v-5.624H6.719v-2.328h2.03V8.275c0-2.017 1.195-3.132 3.023-3.132.874 0 1.79.158 1.79.158v1.98h-1.009c-.994 0-1.303.621-1.303 1.258v1.51h2.219l-.355 2.326H11.25V18c3.825-.604 6.75-3.933 6.75-7.951"/></svg> -->

<svg class="icon icon-facebook" xmlns="http://www.w3.org/2000/svg" width="12" height="22" viewBox="0 0 12 22" fill="none">
<path d="M10.9559 12.4766L11.5745 8.54951H7.76379V5.99692C7.76379 4.92312 8.29581 3.87386 9.99704 3.87386H11.7539V0.529718C10.7308 0.36671 9.69697 0.278522 8.6608 0.265869C5.52435 0.265869 3.47669 2.14963 3.47669 5.55513V8.54951H0V12.4766H3.47669V21.9751H7.76379V12.4766H10.9559Z" fill="#FAFBFB"/>
</svg>